<svg id="Слой_1" data-name="Слой 1" xmlns="http://www.w3.org/2000/svg" xmlns:xlink="http://www.w3.org/1999/xlink" viewBox="0 0 29.35 28.73"><defs><style>.cls-1,.cls-4{fill:none;}.cls-2{opacity:0.6;}.cls-3{clip-path:url(#clip-path);}.cls-4{stroke:#6f7073;stroke-linecap:round;stroke-linejoin:round;stroke-width:1.78px;}.cls-5{fill:#6f7073;}</style><clipPath id="clip-path" transform="translate(-1155 -37.76)"><rect class="cls-1" x="1138" y="24.76" width="63.36" height="42.72"/></clipPath></defs><title>23</title><g class="cls-2"><g class="cls-3"><path class="cls-4" d="M1175.49,55.6l2.78,9.83,0,0.13a0.32,0.32,0,0,1-.15-0.08l-8.35-5.8a0.22,0.22,0,0,0-.29,0l-8.35,5.8-0.15.1,0.08-.29q1.37-4.85,2.74-9.7a0.27,0.27,0,0,0-.1-0.33L1156,48.92a0.17,0.17,0,0,1-.09-0.1H1166a0.27,0.27,0,0,0,.31-0.22q1.09-3.25,2.2-6.51l1.13-3.34a0.15,0.15,0,0,1,.06-0.11l0.32,0.93q1.53,4.53,3.06,9.05a0.23,0.23,0,0,0,.26.19h10.15l-0.3.25-7.58,6.2A0.27,0.27,0,0,0,1175.49,55.6Z" transform="translate(-1155 -37.76)"/><path class="cls-5" d="M1172.06,52a2.38,2.38,0,1,0-3.32,2.18l-1.36,3.36h4.6l-1.36-3.36a2.38,2.38,0,0,0,1.44-2.18" transform="translate(-1155 -37.76)"/></g></g></svg>