<?xml version="1.0" encoding="utf-8"?>
<!-- Generator: Adobe Illustrator 19.1.0, SVG Export Plug-In . SVG Version: 6.00 Build 0)  -->
<svg version="1.1" id="Слой_1" xmlns="http://www.w3.org/2000/svg" xmlns:xlink="http://www.w3.org/1999/xlink" x="0px" y="0px"
	 viewBox="0 0 192.1 53.8" style="enable-background:new 0 0 192.1 53.8;" xml:space="preserve">
<style type="text/css">
	.st0{fill:#797A7D;}
	.st1{fill:none;}
</style>
<g>
	<path class="st0" d="M8.2,16H4.8v-4.6c1.1,0,2.3,0,3.4,0C10.9,11.4,10.8,16,8.2,16 M8.2,7.1H0.1v18.6h4.7v-5.5h2.5l3.2,5.5h5.3V25
		l-3.6-5.9C16.9,15.9,15.5,7.1,8.2,7.1"/>
	<path class="st0" d="M22.4,16.4c0-6.7,9.3-6.7,9.3,0C31.7,23.1,22.4,23.1,22.4,16.4 M17.5,16.4c0,12.9,19,12.9,19,0
		C36.6,3.6,17.5,3.6,17.5,16.4"/>
	<path class="st0" d="M120.4,40.2l-2.9-8.2c3.4,1.3,6,4.4,6.4,8.2H120.4z M114.1,51.2c-0.2,0-0.4,0-0.6,0l3.7-14.8l2,5.7h4.8
		C123.5,47.2,119.2,51.2,114.1,51.2 M110.7,40.2h-6.4c0.3-2.4,1.4-4.5,3-6.1c1.5,2.7,3.4,5.4,5.9,8c0.1,0.2,0.5,0.5,0.5,0.5
		l-0.9,3.8L110.7,40.2z M104.2,42.1h5.1l2.8,8.9C107.9,50.1,104.6,46.5,104.2,42.1 M114.1,31.4c0.8,0,1.5,0.1,2.2,0.3l-2,8
		c-2.1-2.3-3.7-4.7-4.9-7C110.8,31.8,112.4,31.4,114.1,31.4 M93.3,39.9L92,37.4l5.3-7.5c0.3-0.4,0.3-0.9,0.1-1.3
		c-0.2-0.4-0.6-0.7-1.1-0.7h-1.9l2.2-2.4h6.2L93.3,39.9z M91.3,35.9L86,25.5h6.8l-1.9,2.8c-0.3,0.4-0.4,0.9-0.2,1.3
		c0.2,0.4,0.6,0.7,1.1,0.7h2.1L91.3,35.9z M82.8,40.2h-6.2l-2,6.2l-1-3.9l6.2-8.4C81.4,35.7,82.5,37.9,82.8,40.2 M75.1,50.9l2.8-8.8
		h4.9C82.4,46.4,79.2,50,75.1,50.9 M72.9,51.2c-5.2,0-9.4-4-9.8-9h5l2-5.7l3.7,14.7C73.5,51.1,73.2,51.2,72.9,51.2 M69.7,31.9
		l-3,8.3h-3.7C63.5,36.4,66.1,33.2,69.7,31.9 M72.9,31.4c1.7,0,3.3,0.4,4.7,1.2l-4.9,6.6l-1.9-7.6C71.5,31.5,72.2,31.4,72.9,31.4
		 M114.1,28.7c-2.1,0-4.1,0.5-5.8,1.4c-1.7-3.8-2.5-7.3-2.8-9.7h0c-0.1-0.6-0.1-1.2-0.1-1.6l2.3-0.5c0.7-0.1,1.2-0.8,1-1.6
		c-0.1-0.7-0.8-1.2-1.6-1l-7.6,1.5c-0.7,0.1-1.2,0.8-1,1.6c0.1,0.7,0.8,1.2,1.6,1l2.6-0.5c0,0.2,0,0.5,0,0.5
		c0.1,0.8,0.2,1.8,0.4,2.9H84.6l-0.5-1h2c0.7,0,1.3-0.6,1.3-1.3c0-0.7-0.6-1.3-1.3-1.3h-5.8h-0.8h-1.2c-0.7,0-1.3,0.6-1.3,1.3
		c0,0.7,0.6,1.3,1.3,1.3h1.3h0.8h0.7l1.8,3.5l-3.7,5.1c-1.8-1.1-4-1.7-6.3-1.7c-6.9,0-12.5,5.6-12.5,12.5c0,6.9,5.6,12.5,12.5,12.5
		c6.9,0,12.5-5.6,12.5-12.5c0-3.7-1.6-7-4.1-9.3l2.9-4L92,43.1c0.2,0.4,0.6,0.7,1.1,0.7c0,0,0.1,0,0.1,0c0.4,0,0.9-0.2,1.1-0.6
		l10.2-15.3c0.4,1.2,0.9,2.5,1.5,3.8c-2.7,2.3-4.5,5.7-4.5,9.6c0,6.9,5.6,12.5,12.5,12.5c6.9,0,12.5-5.6,12.5-12.5
		C126.6,34.4,121,28.7,114.1,28.7"/>
	<rect class="st1" width="192.1" height="53.8"/>
	<rect class="st0" width="192.1" height="3.6"/>
	<polygon class="st0" points="180.3,7.3 180.3,25.8 192.1,25.8 192.1,21.6 185,21.6 185,18.4 191.3,18.4 191.3,14.1 185,14.1 
		185,11.5 191.9,11.5 191.9,7.3 	"/>
	<path class="st0" d="M191.9,30.9c0,0,0.1-0.1,0.1-0.1L191.9,30.9c-1.2-0.1-2.5-0.1-3.7-0.1c-0.1,0-0.1,0-0.1-0.1
		c-0.4-1.1-0.8-2.2-1.2-3.3c0-0.1-0.1-0.2-0.1-0.3c0,0,0,0,0,0c-0.1,0.4-0.3,0.8-0.4,1.2c-0.3,0.8-0.6,1.6-0.8,2.4
		c0,0.1-0.1,0.1-0.1,0.1c-1.2,0-2.5,0-3.7,0h-0.1c0,0,0,0,0,0c1,0.8,1.9,1.5,2.9,2.3c0,0,0.1,0.1,0,0.1c-0.3,1.2-0.7,2.3-1,3.5
		c0,0,0,0.1,0,0.1c0,0,0,0,0.1,0c1-0.7,2.1-1.4,3.1-2.1c0,0,0.1,0,0.1,0c1,0.7,2.1,1.4,3.1,2.1c0,0,0,0,0.1,0c0,0,0,0,0,0
		c-0.3-1.2-0.7-2.4-1-3.5c0-0.1,0-0.1,0-0.1C190,32.4,190.9,31.6,191.9,30.9"/>
	<path class="st0" d="M129.5,41.4c0,0.5,0,0.9-0.1,1.4h62.7v-3.6h-62.8C129.5,39.9,129.5,40.6,129.5,41.4"/>
	<path class="st0" d="M139.7,30.9c0,0,0.1-0.1,0.1-0.1L139.7,30.9c-1.2-0.1-2.5-0.1-3.7-0.1c-0.1,0-0.1,0-0.1-0.1
		c-0.4-1.1-0.8-2.2-1.2-3.3c0-0.1-0.1-0.2-0.1-0.3c0,0,0,0,0,0c-0.1,0.4-0.3,0.8-0.4,1.2c-0.3,0.8-0.6,1.6-0.8,2.4
		c0,0.1-0.1,0.1-0.1,0.1c-1.2,0-2.5,0-3.7,0h-0.1c0,0,0,0,0,0c1,0.8,1.9,1.5,2.9,2.3c0,0,0.1,0.1,0,0.1c-0.3,1.2-0.7,2.3-1,3.5
		c0,0,0,0.1,0,0.1c0,0,0,0,0.1,0c1-0.7,2.1-1.4,3.1-2.1c0,0,0.1,0,0.1,0c1,0.7,2.1,1.4,3.1,2.1c0,0,0,0,0.1,0c0,0,0,0,0,0
		c-0.3-1.2-0.7-2.4-1-3.5c0-0.1,0-0.1,0-0.1C137.8,32.4,138.8,31.6,139.7,30.9"/>
	<rect class="st1" width="192.1" height="53.8"/>
	<polygon class="st0" points="137.1,13.5 136.9,13.5 133.5,7.3 128.4,7.3 128.4,8 134.6,18 134.6,25.8 139.3,25.8 139.3,18 145.6,8 
		145.6,7.3 140.4,7.3 	"/>
	<path class="st0" d="M152.9,30.9c0,0,0.1-0.1,0.1-0.1L152.9,30.9c-1.2-0.1-2.5-0.1-3.7-0.1c-0.1,0-0.1,0-0.1-0.1
		c-0.4-1.1-0.8-2.2-1.2-3.3c0-0.1-0.1-0.2-0.1-0.3c0,0,0,0,0,0c-0.1,0.4-0.3,0.8-0.4,1.2c-0.3,0.8-0.6,1.6-0.8,2.3
		c0,0.1-0.1,0.1-0.1,0.1c-1.2,0-2.5,0-3.7,0h-0.1c0,0,0,0,0,0c1,0.8,1.9,1.5,2.9,2.3c0,0,0.1,0.1,0,0.1c-0.3,1.2-0.7,2.3-1,3.5
		c0,0,0,0.1,0,0.1c0,0,0,0,0.1,0c1-0.7,2.1-1.4,3.1-2.1c0,0,0.1,0,0.1,0c1,0.7,2.1,1.4,3.1,2.1c0,0,0,0,0.1,0c0,0,0,0,0,0
		c-0.3-1.2-0.7-2.4-1-3.6c0-0.1,0-0.1,0-0.1C151,32.4,151.9,31.6,152.9,30.9"/>
	<path class="st0" d="M162.4,30.8C162.3,30.8,162.3,30.8,162.4,30.8c-0.5-1.2-0.9-2.2-1.2-3.3c0-0.1-0.1-0.2-0.1-0.3c0,0,0,0,0,0
		c-0.1,0.4-0.3,0.8-0.4,1.2c-0.3,0.8-0.6,1.6-0.8,2.4c0,0.1-0.1,0.1-0.1,0.1c-1.2,0-2.5,0-3.7,0h-0.1c0,0,0,0,0,0
		c1,0.8,1.9,1.5,2.9,2.3c0,0,0.1,0.1,0,0.1c-0.3,1.2-0.7,2.3-1,3.5c0,0,0,0.1,0,0.1c0,0,0,0,0.1,0c1-0.7,2.1-1.4,3.1-2.1
		c0,0,0.1,0,0.1,0c1,0.7,2.1,1.4,3.1,2.1c0,0,0,0,0.1,0c0,0,0,0,0,0c-0.3-1.2-0.7-2.4-1-3.5c0-0.1,0-0.1,0-0.1
		c1-0.7,1.9-1.5,2.8-2.2c0,0,0.1-0.1,0.1-0.1h-0.1C164.9,30.8,163.6,30.8,162.4,30.8"/>
	<path class="st0" d="M179.2,30.9c0,0,0.1-0.1,0.1-0.1L179.2,30.9c-1.2-0.1-2.5-0.1-3.7-0.1c-0.1,0-0.1,0-0.1-0.1
		c-0.4-1.1-0.8-2.2-1.2-3.3c0-0.1-0.1-0.2-0.1-0.3c0,0,0,0,0,0c-0.1,0.4-0.3,0.8-0.4,1.2c-0.3,0.8-0.6,1.6-0.8,2.4
		c0,0.1-0.1,0.1-0.1,0.1c-1.2,0-2.5,0-3.7,0h-0.1c0,0,0,0,0,0c1,0.8,1.9,1.5,2.9,2.3c0,0,0.1,0.1,0,0.1c-0.3,1.2-0.7,2.3-1,3.5
		c0,0,0,0.1,0,0.1c0,0,0,0,0.1,0c1-0.7,2.1-1.4,3.1-2.1c0,0,0.1,0,0.1,0c1,0.7,2.1,1.4,3.1,2.1c0,0,0,0,0.1,0c0,0,0,0,0,0
		c-0.3-1.2-0.7-2.4-1-3.5c0-0.1,0-0.1,0-0.1C177.3,32.4,178.2,31.6,179.2,30.9"/>
	<rect class="st1" width="192.1" height="53.8"/>
	<polygon class="st0" points="166.2,7.3 166.2,25.8 177.7,25.8 177.7,21.6 170.9,21.6 170.9,7.3 	"/>
	<path class="st0" d="M154.9,11.4c2,0,3.4,0.9,4.1,2.7h4.7c-0.7-5-4.9-7.1-8.7-7.1c-4.7,0-9.5,3.2-9.5,9.5c0,6.3,4.8,9.5,9.5,9.5
		c4,0,8.1-2.1,8.8-7.3H159c-0.5,2-2.1,3-4.1,3c-2.8,0-4.6-2.4-4.6-5.1C150.2,13.5,152.1,11.4,154.9,11.4"/>
	<path class="st0" d="M119.6,21.7c-2.8,0-4.6-2.4-4.6-5.1c0-3.1,1.8-5.2,4.6-5.2c2,0,3.4,0.8,4.1,2.7h4.7c-0.7-5-4.9-7.1-8.7-7.1
		c-4.7,0-9.5,3.2-9.5,9.5c0,6.3,4.8,9.5,9.5,9.5c4,0,8.1-2.1,8.8-7.3h-4.7C123.3,20.7,121.7,21.7,119.6,21.7"/>
	<rect class="st1" width="192.1" height="53.8"/>
	<polygon class="st0" points="104.6,8.9 104.6,7.3 100.2,7.3 100.2,14.2 104.7,14.2 104.7,12.7 102,12.7 102,11.4 104.4,11.4 
		104.4,9.9 102,9.9 102,8.9 	"/>
	<polygon class="st0" points="91,7.3 91,14.2 92.8,14.2 92.8,11.4 95,11.4 95,14.2 96.8,14.2 96.8,7.3 95,7.3 95,9.8 92.8,9.8 
		92.8,7.3 	"/>
	<polygon class="st0" points="86,14.2 86,8.9 87.8,8.9 87.8,7.3 82.6,7.3 82.6,8.9 84.3,8.9 84.3,14.2 	"/>
	<polygon class="st0" points="65.8,7.1 61,7.1 61,7.1 61,25.7 61,25.7 65.8,25.7 65.8,25.7 65.8,18.6 67.7,18.6 67.9,18.8 
		70.7,23.8 71.8,25.7 71.8,25.7 77,25.7 77,24.9 75.5,22.4 72,16.8 71.8,16.4 72,16 75.5,10.3 77,7.8 77,7.1 71.8,7.1 71.8,7.1 
		70.7,9 67.9,13.9 67.8,14.1 65.8,14.1 65.8,7.1 	"/>
	<path class="st0" d="M54.5,30.8C54.5,30.8,54.5,30.8,54.5,30.8c-0.5-1.2-0.9-2.2-1.2-3.3c0-0.1-0.1-0.2-0.1-0.3c0,0,0,0,0,0
		c-0.1,0.4-0.3,0.8-0.4,1.2c-0.3,0.8-0.6,1.6-0.8,2.4c0,0.1-0.1,0.1-0.1,0.1c-1.2,0-2.5,0-3.7,0H48c0,0,0,0,0,0
		c1,0.8,1.9,1.5,2.9,2.3c0,0,0.1,0.1,0,0.1c-0.3,1.2-0.7,2.3-1,3.5c0,0,0,0.1,0,0.1c0,0,0,0,0.1,0c1-0.7,2.1-1.4,3.1-2.1
		c0,0,0.1,0,0.1,0c1,0.7,2.1,1.4,3.1,2.1c0,0,0,0,0.1,0c0,0,0,0,0,0c-0.3-1.2-0.7-2.4-1-3.5c0-0.1,0-0.1,0-0.1
		c1-0.7,1.9-1.5,2.8-2.2c0,0,0.1-0.1,0.1-0.1h-0.1C57,30.8,55.8,30.8,54.5,30.8"/>
	<path class="st0" d="M0.1,30.8c1,0.8,1.9,1.5,2.9,2.3c0,0,0.1,0.1,0,0.1c-0.3,1.2-0.7,2.3-1,3.5c0,0,0,0.1,0,0.1c0,0,0,0,0.1,0
		c1-0.7,2.1-1.4,3.1-2.1c0,0,0.1,0,0.1,0c1,0.7,2.1,1.4,3.1,2.1c0,0,0,0,0.1,0c0,0,0,0,0,0c-0.3-1.2-0.7-2.4-1-3.5
		c0-0.1,0-0.1,0-0.1c1-0.7,1.9-1.5,2.8-2.2c0,0,0.1-0.1,0.1-0.1h-0.1c-1.2,0-2.5,0-3.7,0c-0.1,0-0.1,0-0.1-0.1
		c-0.4-1.1-0.8-2.2-1.2-3.3c0-0.1-0.1-0.2-0.1-0.3c0,0,0,0,0,0C5.1,27.6,5,28,4.8,28.4c-0.3,0.8-0.6,1.6-0.8,2.3
		c0,0.1-0.1,0.1-0.1,0.1C2.6,30.8,1.4,30.8,0.1,30.8L0.1,30.8C0.1,30.8,0.1,30.8,0.1,30.8"/>
	<path class="st0" d="M17.3,27.1C17.3,27.1,17.3,27.2,17.3,27.1c-0.2,0.4-0.3,0.8-0.4,1.2c-0.3,0.8-0.6,1.6-0.8,2.4
		c0,0.1-0.1,0.1-0.1,0.1c-1.2,0-2.5,0-3.7,0h-0.1c0,0,0,0,0,0c1,0.8,1.9,1.5,2.9,2.3c0,0,0.1,0.1,0,0.1c-0.3,1.2-0.7,2.3-1,3.5
		c0,0,0,0.1,0,0.1c0,0,0,0,0.1,0c1-0.7,2.1-1.4,3.1-2.1c0,0,0.1,0,0.1,0c1,0.7,2.1,1.4,3.1,2.1c0,0,0,0,0.1,0c0,0,0,0,0,0
		c-0.3-1.2-0.7-2.4-1-3.5c0-0.1,0-0.1,0-0.1c1-0.7,1.9-1.5,2.8-2.2c0,0,0.1-0.1,0.1-0.1h-0.1c-1.2,0-2.5,0-3.7,0
		c-0.1,0-0.1,0-0.1-0.1c-0.4-1.1-0.8-2.2-1.2-3.3C17.4,27.4,17.4,27.3,17.3,27.1"/>
	<path class="st0" d="M34.4,30.9c0,0,0.1-0.1,0.1-0.1L34.4,30.9c-1.2-0.1-2.5-0.1-3.7-0.1c-0.1,0-0.1,0-0.1-0.1
		c-0.4-1.1-0.8-2.2-1.2-3.3c0-0.1-0.1-0.2-0.1-0.3c0,0,0,0,0,0c-0.1,0.4-0.3,0.8-0.4,1.2c-0.3,0.8-0.6,1.6-0.8,2.4
		c0,0.1-0.1,0.1-0.1,0.1c-1.2,0-2.5,0-3.7,0h-0.1c0,0,0,0,0,0c1,0.8,1.9,1.5,2.9,2.3c0,0,0.1,0.1,0,0.1c-0.3,1.2-0.7,2.3-1,3.5
		c0,0,0,0.1,0,0.1c0,0,0,0,0.1,0c1-0.7,2.1-1.4,3.1-2.1c0,0,0.1,0,0.1,0c1,0.7,2.1,1.4,3.1,2.1c0,0,0,0,0.1,0c0,0,0,0,0,0
		c-0.3-1.2-0.7-2.4-1-3.5c0-0.1,0-0.1,0-0.1C32.5,32.4,33.4,31.6,34.4,30.9"/>
	<path class="st0" d="M36.2,30.8C36.2,30.8,36.2,30.8,36.2,30.8c1,0.8,2,1.6,2.9,2.3c0,0,0.1,0.1,0,0.1c-0.3,1.2-0.7,2.3-1,3.5
		c0,0,0,0.1,0,0.1c0,0,0,0,0.1,0c1-0.7,2.1-1.4,3.1-2.1c0,0,0.1,0,0.1,0c1,0.7,2.1,1.4,3.1,2.1c0,0,0,0,0.1,0c0,0,0,0,0,0
		c-0.3-1.2-0.7-2.4-1-3.5c0-0.1,0-0.1,0-0.1c1-0.7,1.9-1.5,2.8-2.2c0,0,0.1-0.1,0.1-0.1h-0.1c-1.2,0-2.5,0-3.7,0
		c-0.1,0-0.1,0-0.1-0.1c-0.4-1.1-0.8-2.2-1.2-3.3c0-0.1-0.1-0.2-0.1-0.3c0,0,0,0,0,0c-0.1,0.4-0.3,0.8-0.4,1.2
		c-0.3,0.8-0.6,1.6-0.8,2.4c0,0.1-0.1,0.1-0.1,0.1C38.7,30.8,37.5,30.8,36.2,30.8L36.2,30.8z"/>
	<path class="st0" d="M48.6,11.2c2,0,3.4,0.9,4.1,2.7h4.7c-0.7-5-4.9-7.1-8.7-7.1c-4.7,0-9.5,3.2-9.5,9.5c0,6.3,4.8,9.5,9.5,9.5
		c4,0,8.1-2.1,8.8-7.3h-4.7c-0.5,2-2.1,3-4.1,3c-2.8,0-4.6-2.4-4.6-5.1C43.9,13.3,45.8,11.2,48.6,11.2"/>
	<path class="st0" d="M0,39.1v3.6h57.4c0-0.5-0.1-1-0.1-1.4c0-0.7,0.1-1.5,0.2-2.2H0z"/>
	<rect class="st1" width="192.1" height="53.8"/>
</g>
</svg>
