<svg id="Слой_1" data-name="Слой 1" xmlns="http://www.w3.org/2000/svg" xmlns:xlink="http://www.w3.org/1999/xlink" viewBox="0 0 229.4 79.34"><defs><style>.cls-1{fill:none;}.cls-2{clip-path:url(#clip-path);}.cls-3{clip-path:url(#clip-path-2);}.cls-4{fill:#fff;}</style><clipPath id="clip-path" transform="translate(-765 -11)"><rect class="cls-1" width="1280" height="2849.94"/></clipPath><clipPath id="clip-path-2" transform="translate(-765 -11)"><rect class="cls-1" x="740" y="-8" width="279.4" height="99.34"/></clipPath></defs><title>rockcycle-logo</title><g class="cls-2"><g class="cls-3"><rect x="4.82" y="2.69" width="214.75" height="71.58"/><path class="cls-4" d="M875.38,53.44h1.91a1.2,1.2,0,0,1,.93,2l-5.28,7.52,1.27,2.49L883.8,51h-6.22Z" transform="translate(-765 -11)"/><path class="cls-4" d="M872.66,55.84a1.2,1.2,0,0,1-.88-2L873.71,51h-6.83l5.31,10.4,2.6-5.6h-2.13Z" transform="translate(-765 -11)"/><path class="cls-4" d="M898,61.9l-3.66,14.76,0.65,0a9.9,9.9,0,0,0,9.85-9H900Z" transform="translate(-765 -11)"/><path class="cls-4" d="M854.49,68l1,3.93,2-6.21h6.22a9.87,9.87,0,0,0-3-6.08Z" transform="translate(-765 -11)"/><path class="cls-4" d="M885.12,67.63A9.9,9.9,0,0,0,893,76.48l-2.81-8.85h-5.07Z" transform="translate(-765 -11)"/><path class="cls-4" d="M894,67.7a39.37,39.37,0,0,1-5.87-8,9.87,9.87,0,0,0-3,6.09h6.43l2,6.21,0.93-3.76L894,67.7" transform="translate(-765 -11)"/><path class="cls-4" d="M858.53,58.1a9.84,9.84,0,0,0-6.75-1l1.89,7.63Z" transform="translate(-765 -11)"/><path class="cls-4" d="M898.42,57.53l2.93,8.22h3.45a9.91,9.91,0,0,0-6.37-8.22" transform="translate(-765 -11)"/><path class="cls-4" d="M856,76.43a9.9,9.9,0,0,0,7.66-8.8h-4.86Z" transform="translate(-765 -11)"/><path class="cls-4" d="M789.14,36.86c-1.12,0-2.28,0-3.4,0V41.5h3.4c2.57,0,2.7-4.61,0-4.64" transform="translate(-765 -11)"/><path class="cls-4" d="M803.3,41.93a4.67,4.67,0,1,0,9.31,0,4.67,4.67,0,1,0-9.31,0" transform="translate(-765 -11)"/><path class="cls-4" d="M849,67.63h-5a9.89,9.89,0,0,0,9.84,9c0.29,0,.57,0,0.86,0L851,61.9Z" transform="translate(-765 -11)"/><path class="cls-4" d="M850.61,57.45a9.91,9.91,0,0,0-6.61,8.3h3.65Z" transform="translate(-765 -11)"/><path class="cls-4" d="M897.21,57.17a9.94,9.94,0,0,0-2.24-.26,9.82,9.82,0,0,0-4.65,1.17,36.3,36.3,0,0,0,4.92,7Z" transform="translate(-765 -11)"/><path class="cls-4" d="M973,29.16H780.9V25.52H973v3.64Zm0,22.21H961.18V32.8h11.59V37H965.9v2.63h6.31v4.22H965.9v3.26H973v4.22Zm-3.1,7.41,1,3.55v0l-0.06,0-3.14-2.09a0.08,0.08,0,0,0-.11,0l-3.14,2.09-0.06,0,0-.11,1-3.5a0.09,0.09,0,0,0,0-.12l-2.92-2.29a0.06,0.06,0,0,1,0,0h3.79a0.1,0.1,0,0,0,.12-0.08l0.83-2.35,0.42-1.2a0.05,0.05,0,0,1,0,0L967.84,53,969,56.26a0.09,0.09,0,0,0,.1.07h3.82l-0.11.09-2.85,2.24a0.1,0.1,0,0,0,0,.12m3.1,9.5H910.35c0-.45.06-0.9,0.06-1.36a15.79,15.79,0,0,0-.17-2.27H973v3.64Zm-55.27-9.5,1,3.55v0a0.12,0.12,0,0,1-.06,0l-3.14-2.09a0.09,0.09,0,0,0-.11,0l-3.14,2.09-0.06,0,0-.11,1-3.5a0.09,0.09,0,0,0,0-.12l-2.92-2.29a0.06,0.06,0,0,1,0,0h3.79a0.1,0.1,0,0,0,.12-0.08l0.83-2.35,0.43-1.2a0.05,0.05,0,0,1,0,0L915.67,53l1.15,3.27a0.09,0.09,0,0,0,.1.07h3.82l-0.11.09-2.85,2.24a0.1,0.1,0,0,0,0,.12m8.76-25.26-6.26,10.05v7.8h-4.69v-7.8l-6.23-10.05V32.8h5.12L917.79,39H918l3.37-6.18h5.15v0.72Zm4.38,25.26,1,3.55v0a0.12,0.12,0,0,1-.06,0l-3.14-2.09a0.08,0.08,0,0,0-.11,0l-3.14,2.09-0.06,0,0-.1,1-3.5a0.09,0.09,0,0,0,0-.12l-2.92-2.29a0.07,0.07,0,0,1,0,0h3.79a0.1,0.1,0,0,0,.12-0.08l0.83-2.35,0.42-1.2a0.05,0.05,0,0,1,0,0L928.8,53,930,56.26a0.09,0.09,0,0,0,.1.07h3.82l-0.11.09-2.85,2.24a0.1,0.1,0,0,0,0,.12m16.22-2.45-0.11.09-2.85,2.24a0.1,0.1,0,0,0,0,.12l1,3.55v0a0.12,0.12,0,0,1-.05,0L942,60.25a0.08,0.08,0,0,0-.11,0l-3.14,2.09-0.06,0,0-.11,1-3.5a0.09,0.09,0,0,0,0-.12l-2.92-2.29a0.06,0.06,0,0,1,0,0h3.79a0.1,0.1,0,0,0,.12-0.08l0.83-2.35,0.42-1.2a0.05,0.05,0,0,1,0,0L942,53l1.15,3.27a0.09,0.09,0,0,0,.1.07h3.82Zm10.12,2.45,1,3.55v0l-0.06,0-3.14-2.09a0.08,0.08,0,0,0-.11,0l-3.14,2.09-0.06,0,0-.11,1-3.5a0.09,0.09,0,0,0,0-.12l-2.92-2.29a0.06,0.06,0,0,1,0,0h3.79a0.1,0.1,0,0,0,.12-0.08l0.83-2.35L955,52.7a0.05,0.05,0,0,1,0,0L955.15,53l1.15,3.27a0.09,0.09,0,0,0,.1.07h3.82l-0.11.09-2.85,2.24a0.1,0.1,0,0,0,0,.12m1.37-11.68v4.27H947.07V32.8h4.77V47.09h6.74Zm-22.82.13a4,4,0,0,0,4.14-3h4.67c-0.69,5.25-4.85,7.32-8.81,7.32a9.14,9.14,0,0,1-9.52-9.47c0-6.31,4.8-9.5,9.52-9.5,3.85,0,8,2.09,8.73,7.05h-4.67a3.9,3.9,0,0,0-4.06-2.73c-2.78,0-4.61,2.09-4.61,5.17,0,2.73,1.8,5.12,4.61,5.15m-35.22,4.32c-4.72,0-9.49-3.16-9.52-9.47s4.8-9.5,9.52-9.5c3.84,0,8,2.09,8.72,7.05H904.6a3.9,3.9,0,0,0-4.06-2.73c-2.78,0-4.61,2.09-4.61,5.17,0,2.73,1.8,5.12,4.61,5.15a4,4,0,0,0,4.14-3h4.67c-0.69,5.25-4.85,7.32-8.8,7.32M885.27,35.38V37H882.9v1.22h2.67v1.58h-4.44v-7h4.35v1.59H882.9v1h2.37Zm-9.42-.05V32.8h1.82v7h-1.82V37h-2.15v2.79h-1.82v-7h1.82v2.53h2.15Zm-12.37-.93V32.8h5.17v1.59H867v5.37h-1.76V34.39h-1.71Zm-14.8,5.22,0.09-.16,2.82-5,1.06-1.87h5.29v0.74l-1.53,2.48-3.51,5.69-0.25.38,0.25,0.38L856.41,48l1.53,2.48v0.74h-5.29l-1.06-1.87-2.82-5-0.15-.26h-1.87v7.1h-4.83V32.62h4.83v7h1.93ZM895,79.33a12.53,12.53,0,0,1-8.07-22.12,39.05,39.05,0,0,1-1.51-3.76L875.16,68.76a1.32,1.32,0,0,1-1.1.59H874a1.33,1.33,0,0,1-1.1-.72l-7.72-15.09-2.91,4a12.56,12.56,0,1,1-2.14-1.57l3.7-5.06L862,47.42h-2.81a1.33,1.33,0,0,1,0-2.65H867a1.33,1.33,0,0,1,0,2.65h-2l0.52,1H884c-0.21-1.09-.36-2.07-0.45-2.89,0,0,0-.38,0-0.55l-2.58.52a1.33,1.33,0,1,1-.53-2.6L888,41.34a1.33,1.33,0,1,1,.53,2.6l-2.34.47c0,0.42.07,1,.14,1.6h0a36.89,36.89,0,0,0,2.81,9.68A12.54,12.54,0,1,1,895,79.33M839.15,56.42l-2.85,2.24a0.1,0.1,0,0,0,0,.12l1,3.55v0a0.12,0.12,0,0,1-.06,0l-3.14-2.09a0.09,0.09,0,0,0-.11,0l-3.14,2.09-0.06,0,0-.11,1-3.5a0.09,0.09,0,0,0,0-.12l-2.92-2.29a0.06,0.06,0,0,1,0,0h3.79a0.1,0.1,0,0,0,.12-0.08l0.83-2.35,0.43-1.2a0.05,0.05,0,0,1,0,0L834.2,53l1.15,3.27a0.09,0.09,0,0,0,.1.07h3.82l-0.11.09m-58.08-.09h3.72a0.1,0.1,0,0,0,.12-0.08l0.83-2.35,0.43-1.2a0.05,0.05,0,0,1,0,0L786.3,53l1.15,3.27a0.09,0.09,0,0,0,.1.07h3.82l-0.11.09-2.85,2.24a0.1,0.1,0,0,0,0,.12l1,3.55v0l-0.06,0-3.14-2.09a0.08,0.08,0,0,0-.11,0L783,62.35l-0.06,0,0-.11,1-3.5a0.09,0.09,0,0,0,0-.12L781,56.36a0.07,0.07,0,0,1,0,0h0.07Zm18.44-.07a0.09,0.09,0,0,0,.1.07h3.82l-0.11.09-2.85,2.24a0.1,0.1,0,0,0,0,.12l1,3.55v0a0.12,0.12,0,0,1-.05,0l-3.14-2.09a0.08,0.08,0,0,0-.11,0L795,62.35l-0.06,0,0-.11,1-3.5a0.09,0.09,0,0,0,0-.12l-2.92-2.29a0.06,0.06,0,0,1,0,0h3.79a0.1,0.1,0,0,0,.12-0.08l0.83-2.35,0.42-1.2a0.05,0.05,0,0,1,0,0L798.36,53l1.15,3.27m12.89,2.52,1,3.55v0l-0.06,0-3.14-2.09a0.08,0.08,0,0,0-.11,0L807,62.35l-0.06,0,0-.11,1-3.5a0.09,0.09,0,0,0,0-.12l-2.92-2.29a0.07,0.07,0,0,1,0,0h3.79a0.1,0.1,0,0,0,.12-0.08l0.83-2.35,0.43-1.2a0.05,0.05,0,0,1,0,0L810.33,53l1.15,3.27a0.09,0.09,0,0,0,.1.07h3.82l-0.11.09-2.85,2.24a0.09,0.09,0,0,0,0,.12m-14-16.85c0-12.84,19-12.84,19,0s-19,12.86-19,0m22.45,14.4a0.1,0.1,0,0,0,.12-0.08l0.83-2.35,0.43-1.2a0.05,0.05,0,0,1,0,0L822.39,53l1.15,3.27a0.09,0.09,0,0,0,.1.07h3.82l-0.11.09-2.85,2.24a0.1,0.1,0,0,0,0,.12l1,3.55v0l-0.06,0-3.14-2.09a0.08,0.08,0,0,0-.11,0l-3.14,2.09-0.06,0,0-.11,1-3.5a0.09,0.09,0,0,0,0-.12l-2.92-2.29a0.07,0.07,0,0,1,0,0h3.79M829.46,47a4,4,0,0,0,4.14-3h4.67c-0.69,5.25-4.85,7.32-8.8,7.32a9.14,9.14,0,0,1-9.52-9.47c0-6.31,4.8-9.49,9.52-9.49,3.84,0,8,2.09,8.72,7.05h-4.67a3.89,3.89,0,0,0-4.06-2.73c-2.79,0-4.61,2.09-4.61,5.17,0,2.73,1.8,5.12,4.61,5.15M796.7,50.49v0.69h-5.3l-3.18-5.46h-2.47v5.46H781V32.62h8.14c7.29,0,8.62,8.81,3.92,12Zm41.63,17.78H780.9V64.64h57.52a15.82,15.82,0,0,0-.16,2.2c0,0.48,0,1,.07,1.44M765,90.34H994.4V11H765V90.34Z" transform="translate(-765 -11)"/></g></g></svg>