<svg id="Слой_1" data-name="Слой 1" xmlns="http://www.w3.org/2000/svg" viewBox="0 0 17.56 25.38"><defs><style>.cls-1{opacity:0.6;}.cls-2{fill:#6f7073;}</style></defs><title>rty</title><g class="cls-1"><path class="cls-2" d="M915.53,46.86a2.29,2.29,0,0,0-2.22-2.41,35,35,0,0,0-3.52,0v2a21,21,0,0,0,2.29,0c1.22-.14,1.59.35,1.56,1.59-0.07,3.54,0,7.07,0,10.61,0,0.88-.07,1.47-1.19,1.45-3.79-.05-7.58,0-11.37,0a1,1,0,0,1-1.12-1.18q0-5.64,0-11.27a1,1,0,0,1,1.13-1.18c0.9,0,1.8,0,2.71,0V44.52a5.42,5.42,0,0,0-.67-0.1c-0.87,0-1.73,0-2.6,0A2.43,2.43,0,0,0,898,47.09q0,6.13,0,12.27A2.39,2.39,0,0,0,900.56,62q6.25,0.06,12.51,0a2.35,2.35,0,0,0,2.46-2.51q0.07-6.3,0-12.6" transform="translate(-898 -36.62)"/><path class="cls-2" d="M903.51,43c0.74-.7,2.24-2.85,2.38-2.8v13.2h1.92V40.35A31.28,31.28,0,0,0,910.07,43a3.11,3.11,0,0,0,1.38.34,3,3,0,0,0,0-1.46c-1.19-1.64-2.48-3.21-3.76-4.78a1,1,0,0,0-1.77,0c-1.27,1.58-2.57,3.14-3.76,4.78a3,3,0,0,0,0,1.46,3.08,3.08,0,0,0,1.38-.34" transform="translate(-898 -36.62)"/></g></svg>