<svg id="Слой_1" data-name="Слой 1" xmlns="http://www.w3.org/2000/svg" viewBox="0 0 23.49 22.61"><defs><style>.cls-1{opacity:0.68;}.cls-2{fill:#ec008c;}</style></defs><title>tr</title><g class="cls-1"><path class="cls-2" d="M441.3,46.77a1.49,1.49,0,0,0-1.11.93c-1,1.86-2,3.7-3,5.55a1.28,1.28,0,0,1-1.37.76c-0.86-.07-1.73,0-2.59,0-1.2,0-2.4,0-3.61,0A2.06,2.06,0,0,1,427.37,52q-0.86-4.25-1.71-8.5a4.43,4.43,0,0,0-4.39-4c-1.12-.12-1.86.35-1.92,1.24S419.87,42,421,42.16c1.37,0.14,1.76.47,2,1.81,0.59,2.91,1.15,5.83,1.76,8.74A4.47,4.47,0,0,0,429,56.57c1.38,0.14,2.78,0,4.17,0v0.07c1.07,0,2.15,0,3.22,0a2.63,2.63,0,0,0,2.53-1.25c0.79-1.22,1.56-2.46,2.27-3.72,0.57-1,1.09-2.05,1.56-3.11a1.3,1.3,0,0,0-1.41-1.83" transform="translate(-419.35 -39.48)"/><path class="cls-2" d="M432.48,50.07a0.52,0.52,0,0,0,.87,0c1.23-1.4,2.47-2.79,3.67-4.22,0.4-.48.17-0.88-0.48-0.91-0.47,0-.93,0-1.4,0a0.41,0.41,0,0,1-.5-0.48c0-.85-0.1-1.69-0.14-2.54-0.06-1.19-.37-1.49-1.59-1.5h-0.38a1,1,0,0,0-1.21,1.26c-0.06,1.05-.14,2.11-0.21,3.23-0.68,0-1.25,0-1.82,0a0.85,0.85,0,0,0-.62.29,0.78,0.78,0,0,0,.15.68c1.2,1.4,2.42,2.78,3.65,4.16" transform="translate(-419.35 -39.48)"/><path class="cls-2" d="M437,57.51a2.29,2.29,0,1,0,2.26,2.31A2.28,2.28,0,0,0,437,57.51" transform="translate(-419.35 -39.48)"/><path class="cls-2" d="M428.85,57.51a2.29,2.29,0,1,0,2.27,2.32,2.32,2.32,0,0,0-2.27-2.32" transform="translate(-419.35 -39.48)"/></g></svg>